<svg width="11" height="11" viewBox="0 0 11 11" fill="none" xmlns="http://www.w3.org/2000/svg">
<path d="M5.81893 0.919683C5.88031 0.913995 5.94208 0.913995 6.00346 0.919683L6.73767 0.987717C6.79905 0.993405 6.85978 1.00476 6.91907 1.02163L7.62828 1.22341C7.68757 1.24028 7.74517 1.2626 7.80035 1.29008L8.46041 1.61874C8.51559 1.64622 8.56811 1.67874 8.6173 1.71589L9.20572 2.16025C9.25492 2.19739 9.30057 2.23901 9.3421 2.28457L9.83885 2.82948C9.88038 2.87504 9.91761 2.92433 9.95006 2.97674L10.3382 3.60366C10.3707 3.65607 10.3982 3.71137 10.4205 3.76885L10.6868 4.45641C10.7091 4.51389 10.726 4.57331 10.7373 4.6339L10.8728 5.35871C10.8842 5.4193 10.8899 5.48081 10.8899 5.54245V6.27981C10.8899 6.34145 10.8842 6.40297 10.8728 6.46356L10.7373 7.18836C10.726 7.24896 10.7091 7.30837 10.6868 7.36585L10.4205 8.05342C10.3982 8.1109 10.3707 8.1662 10.3382 8.21861L9.95006 8.84552C9.91761 8.89793 9.88038 8.94723 9.83885 8.99278L9.3421 9.5377C9.30057 9.58325 9.25492 9.62487 9.20572 9.66202L8.6173 10.1064C8.56811 10.1435 8.51559 10.176 8.46041 10.2035L7.80035 10.5322C7.74517 10.5597 7.68757 10.582 7.62828 10.5989L6.91907 10.8006C6.85978 10.8175 6.79905 10.8289 6.73767 10.8345L6.00346 10.9026C5.94208 10.9083 5.88031 10.9083 5.81893 10.9026L5.08471 10.8345C5.02333 10.8289 4.96261 10.8175 4.90332 10.8006L4.19411 10.5989C4.13482 10.582 4.07722 10.5597 4.02204 10.5322L3.36198 10.2035C3.3068 10.176 3.25428 10.1435 3.20509 10.1064L2.61666 9.66202C2.56747 9.62487 2.52182 9.58325 2.48029 9.5377L1.98353 8.99279C1.94201 8.94723 1.90478 8.89793 1.87233 8.84552L1.48416 8.21861C1.45171 8.1662 1.42417 8.1109 1.4019 8.05342L1.13554 7.36585C1.11327 7.30837 1.09637 7.24896 1.08504 7.18836L0.94955 6.46356C0.938223 6.40297 0.932523 6.34145 0.932523 6.27981V5.54245C0.932523 5.48081 0.938223 5.4193 0.94955 5.35871L1.08504 4.6339C1.09637 4.57331 1.11327 4.51389 1.13554 4.45641L1.4019 3.76885C1.42417 3.71137 1.45171 3.65607 1.48416 3.60366L1.87233 2.97674C1.90478 2.92433 1.94201 2.87504 1.98353 2.82948L2.48029 2.28457C2.52182 2.23901 2.56747 2.19739 2.61666 2.16025L3.20509 1.71589C3.25428 1.67874 3.3068 1.64622 3.36198 1.61874L4.02204 1.29008C4.07722 1.2626 4.13482 1.24028 4.19411 1.22341L4.90332 1.02163C4.96261 1.00476 5.02333 0.993405 5.08471 0.987717L5.81893 0.919683Z" fill="black"/>
</svg>
